<?xml version="1.0" standalone="no"?>
<!DOCTYPE svg PUBLIC "-//W3C//DTD SVG 20010904//EN"
 "http://www.w3.org/TR/2001/REC-SVG-20010904/DTD/svg10.dtd">
<svg version="1.0" xmlns="http://www.w3.org/2000/svg"
 width="700.000000pt" height="700.000000pt" viewBox="0 0 700.000000 700.000000"
 preserveAspectRatio="xMidYMid meet">
<metadata>
Created by potrace 1.11, written by Peter Selinger 2001-2013
</metadata>
<g transform="translate(0.000000,700.000000) scale(0.100000,-0.100000)"
fill="#000000" stroke="none">
<path d="M3890 5389 c-111 -22 -208 -99 -258 -207 -23 -49 -27 -70 -27 -147 0
-78 4 -98 28 -151 95 -205 348 -275 534 -148 263 181 180 586 -135 653 -60 12
-78 12 -142 0z"/>
<path d="M3135 5196 c-110 -48 -168 -173 -133 -288 16 -53 78 -122 130 -143
199 -81 395 118 304 310 -43 92 -112 135 -213 135 -32 -1 -71 -7 -88 -14z"/>
<path d="M2710 4899 c-32 -13 -78 -56 -96 -91 -20 -39 -17 -112 6 -158 63
-123 247 -123 310 0 61 120 -26 262 -158 259 -20 0 -48 -5 -62 -10z"/>
<path d="M2285 4882 c-131 -61 -147 -230 -30 -311 114 -77 274 9 275 148 1
122 -137 213 -245 163z"/>
<path d="M4494 4860 c-35 -14 -64 -59 -64 -101 0 -79 80 -129 153 -94 81 38
82 151 2 190 -36 17 -59 18 -91 5z"/>
<path d="M4252 4637 c-83 -47 -64 -182 28 -201 39 -7 92 14 114 45 19 27 21
97 3 119 -37 47 -98 63 -145 37z"/>
<path d="M3324 4594 c-412 -69 -755 -363 -878 -752 -54 -173 -68 -342 -41
-509 79 -486 442 -849 928 -928 527 -86 1060 243 1221 753 72 230 72 454 0
684 -162 512 -700 841 -1230 752z m535 -380 c62 -18 132 -78 163 -139 12 -23
23 -68 26 -106 4 -56 1 -75 -20 -120 -104 -228 -422 -223 -508 9 -40 106 -17
206 64 288 79 79 167 100 275 68z"/>
<path d="M4615 4506 c-60 -28 -87 -56 -114 -116 -79 -174 85 -370 269 -321 57
15 104 47 135 91 136 197 -74 448 -290 346z"/>
<path d="M2414 4466 c-25 -25 -34 -43 -34 -67 0 -84 81 -139 153 -104 77 36
85 142 14 185 -50 31 -93 26 -133 -14z"/>
<path d="M1900 4356 c-115 -26 -202 -96 -253 -206 -27 -55 -31 -76 -31 -145 1
-147 72 -263 202 -327 60 -30 75 -33 157 -33 78 0 98 4 150 28 203 95 276 344
153 527 -84 127 -234 189 -378 156z"/>
<path d="M4980 4076 c-113 -25 -202 -96 -251 -200 -88 -184 -9 -396 179 -484
49 -23 70 -27 147 -27 78 0 98 4 152 29 203 94 273 347 147 533 -82 121 -233
181 -374 149z"/>
<path d="M1962 3495 c-121 -62 -166 -198 -104 -316 85 -164 316 -170 410 -10
22 38 27 58 27 117 0 61 -4 77 -30 119 -65 106 -195 144 -303 90z"/>
<path d="M4721 3294 c-71 -50 -57 -155 24 -189 41 -18 80 -8 115 27 35 34 40
83 13 128 -29 50 -105 66 -152 34z"/>
<path d="M4995 2996 c-41 -18 -82 -68 -96 -115 -30 -101 44 -208 149 -219 65
-6 114 11 151 53 73 83 59 202 -31 268 -35 26 -130 33 -173 13z"/>
<path d="M2060 2839 c-139 -56 -159 -233 -36 -317 53 -36 107 -39 168 -8 71
35 102 82 102 157 1 44 -5 64 -26 96 -44 67 -138 100 -208 72z"/>
<path d="M2430 2777 c-48 -37 -62 -95 -36 -145 43 -83 181 -63 200 28 7 39
-14 92 -45 114 -27 19 -97 21 -119 3z"/>
<path d="M4560 2777 c-50 -39 -63 -97 -33 -147 48 -81 178 -61 197 30 7 39
-14 92 -45 114 -27 19 -97 21 -119 3z"/>
<path d="M4225 2531 c-87 -39 -139 -120 -138 -216 0 -167 173 -282 323 -214
55 25 75 43 108 94 32 50 42 153 20 205 -51 121 -199 183 -313 131z"/>
<path d="M2484 2440 c-102 -21 -203 -99 -249 -191 -73 -142 -47 -307 66 -421
175 -177 470 -127 580 98 77 157 34 339 -107 446 -79 61 -196 88 -290 68z"/>
<path d="M3215 2319 c-117 -34 -188 -200 -136 -315 73 -160 278 -189 393 -54
153 178 -27 437 -257 369z"/>
<path d="M3709 2272 c-15 -2 -39 -17 -55 -33 -23 -24 -29 -39 -29 -75 0 -39 5
-50 33 -75 47 -43 102 -41 148 5 25 25 34 43 34 68 0 69 -60 119 -131 110z"/>
<path d="M4041 1971 c-44 -42 -46 -108 -4 -152 64 -68 183 -24 183 68 0 99
-108 150 -179 84z"/>
<path d="M3653 1819 c-125 -62 -133 -229 -15 -310 51 -35 134 -33 189 3 115
76 104 247 -19 307 -56 26 -102 27 -155 0z"/>
</g>
</svg>
